<?xml version="1.0" standalone="no"?><!DOCTYPE svg PUBLIC "-//W3C//DTD SVG 1.1//EN" "http://www.w3.org/Graphics/SVG/1.1/DTD/svg11.dtd"><svg t="1699974763671" class="icon" viewBox="0 0 1024 1024" version="1.1" xmlns="http://www.w3.org/2000/svg" p-id="3408" xmlns:xlink="http://www.w3.org/1999/xlink" width="32" height="32"><path d="M502 403.18h-64v64h64v-64z m448 64h-64v64h64v-64z m-256 128h-64v64h64v-64z m-52-440.41l5.08 8.34 8.59-3.99c37.27-16.09 78.82-20.37 123.52-12.83l15.01 2.95c79.87 17.9 132.63 76.84 155.75 168.88 6.46 25.71-9.15 51.79-34.86 58.25-25.71 6.46-51.79-9.15-58.25-34.86-14.83-59.02-41.87-89.24-83.63-98.59-41.82-9.37-74.73-3.35-102.69 18.11l-8.25 6.9-47.86 43.48-27.76-58.4c-55.15-116-122.34-155.9-211.63-132.74-83.11 21.56-113 76.93-92.71 185.53l2.8 13.85 10.77 49.75-50.3 7.83c-74.01 11.52-115.39 50.11-131.69 122.68-21.43 95.42 12.11 144.87 82.89 148.68l9.04 0.24h203.52c26.51 0 48 21.49 48 48 0 24.3-18.06 44.38-41.49 47.56l-6.51 0.44H205.81C65.99 744.83-15.3 637 20.22 478.87c20.62-91.79 73.83-154.03 155.36-182.81l7.82-2.6-1.43-14.51c-10.43-126.19 42.1-213.13 155.58-247.82l13.36-3.77C470.66-3.71 569.87 41.59 642 154.77z m244 696.41h-64v64h64v-64z m-384 0h-64v64h64v-64z m32-512c17.67 0 32 14.33 32 32v115.33l42.05 44.67H726c4.33 0 8.46 0.86 12.23 2.42L822 481.39v-46.21c0-17.67 14.33-32 32-32h128c17.67 0 32 14.33 32 32v128c0 17.67-14.33 32-32 32H854c-17.67 0-32-14.33-32-32v-6.4l-64 39.94v93.12l51.52 97.34H918c17.67 0 32 14.33 32 32v128c0 17.67-14.33 32-32 32H790c-17.67 0-32-14.33-32-32V831.45l-54.78-108.27h-85.7l-51.53 95.09 0.01 128.91c0 17.67-14.33 32-32 32H406c-17.67 0-32-14.33-32-32v-128c0-17.67 14.33-32 32-32h104l56-103.23v-104l-45.82-48.77H406c-17.67 0-32-14.33-32-32v-128c0-17.67 14.33-32 32-32h128z" fill="#1296db" p-id="3409"></path></svg>